# xmcd CD database file
#
# Track frame offsets:
#	150
#	19895
#	42087
#	61287
#	85240
#	108097
#	123997
#	143787
#	167002
#	175670
#	190150
#	208032
#
# Disc length: 3085 seconds
#
# Revision: 2
# Processed by: cddbd v1.5.2PL0 Copyright (c) Steve Scherf et al.
# Submitted via: CDex 1.70beta2
#
DISCID=9a0c0b0c
DTITLE=Radar Bros. - Radar Bros.
DYEAR=1996
DGENRE=
TTITLE0=lose your face again
TTITLE1=capital gain
TTITLE2=wise mistake of you
TTITLE3=stay
TTITLE4=supermarket pharmacy
TTITLE5=on the floor
TTITLE6=we're over here
TTITLE7=distant mine
TTITLE8=underwater culprits
TTITLE9=this drive
TTITLE10=take stuff
TTITLE11=goddess
EXTD=YEAR: 1996
EXTT0=
EXTT1=
EXTT2=
EXTT3=
EXTT4=
EXTT5=
EXTT6=
EXTT7=
EXTT8=
EXTT9=
EXTT10=
EXTT11=
PLAYORDER=
